# xmcd CD database file
#
# Track frame offsets:
#	150
#	24750
#	42799
#	67146
#	87419
#	106615
#	124976
#	144595
#	163936
#	184985
#	205107
#	220616
#	238548
#
# Disc length: 3459 seconds
#
# Revision: 10
# Processed by: cddbd v1.5.2PL0 Copyright (c) Steve Scherf et al.
# Submitted via: CDex 1.70beta2
#
DISCID=b30d810d
DTITLE=조성모 - Let me love
DYEAR=2000
DGENRE=Ballad
TTITLE0=아시나요
TTITLE1=다짐
TTITLE2=레테의 강
TTITLE3=다음 사람에게는
TTITLE4=고백
TTITLE5=어린 왕자의 사랑이야기
TTITLE6=To. The Moon(해와 달)
TTITLE7=My Love
TTITLE8=Promise(약속)
TTITLE9=마지막 사랑
TTITLE10=나와 함께
TTITLE11=내 고마운 사랑에게
TTITLE12=영혼 (Ghost)
EXTD=YEAR: 2000
EXTT0=
EXTT1=
EXTT2=
EXTT3=
EXTT4=
EXTT5=
EXTT6=
EXTT7=
EXTT8=
EXTT9=
EXTT10=
EXTT11=
EXTT12=
PLAYORDER=
